<svg width="9" height="8" viewBox="0 0 9 8" fill="none" xmlns="http://www.w3.org/2000/svg">
<path d="M8.77127 2.99338C8.70267 2.78486 8.52297 2.63327 8.30571 2.60163L6.10485 2.28182L5.12141 0.294677C4.92669 -0.0982258 4.28311 -0.0982258 4.08838 0.294677L3.10494 2.28182L0.9093 2.60163C0.692653 2.63327 0.512334 2.78539 0.444361 2.994C0.376388 3.20198 0.432872 3.43074 0.59012 3.58393L2.18258 5.13609L1.80691 7.32601C1.77005 7.54204 1.8588 7.76099 2.0362 7.89004C2.13644 7.96261 2.25515 7.99947 2.37439 7.99947C2.46658 7.99947 2.55877 7.97755 2.64398 7.93318L4.60521 6.89899L6.57271 7.93318C6.76628 8.03633 7.00132 8.01901 7.17943 7.88942C7.3563 7.76037 7.44504 7.54204 7.40818 7.32592L7.03314 5.13601L8.6256 3.58384C8.78276 3.43127 8.83871 3.20198 8.77127 2.99338Z" fill="#EF7822"/>
</svg>
