<svg width="30" height="30" viewBox="0 0 30 30" fill="none" xmlns="http://www.w3.org/2000/svg">
<path d="M28.3124 17.6829C28.3124 18.2251 28.0928 18.7154 27.7379 19.0704C27.3823 19.4254 26.892 19.6449 26.3504 19.6449H3.64947C2.5663 19.6449 1.68745 18.7667 1.68745 17.6829C1.68745 17.3926 1.75027 17.1175 1.86312 16.8699C1.96132 16.6546 2.09673 16.4607 2.26197 16.2954C2.61751 15.9404 3.10788 15.7209 3.64947 15.7209H26.3504C27.1439 15.7209 27.8276 16.1917 28.1368 16.8699C28.2496 17.1175 28.3124 17.3926 28.3124 17.6829Z" fill="#884D00"/>
<path d="M28.1367 16.8699C28.0385 17.0846 27.9025 17.2791 27.7379 17.4438C27.3824 17.7988 26.892 18.0183 26.3504 18.0183H3.64942C2.85659 18.0183 2.17292 17.5475 1.86308 16.87C1.96128 16.6547 2.09663 16.4608 2.26192 16.2955C2.61747 15.9405 3.10784 15.7209 3.64942 15.7209H26.3504C27.1438 15.7209 27.8275 16.1917 28.1367 16.8699Z" fill="#AA6100"/>
<path d="M30 21.2287C30 23.7567 28.8296 25.635 26.9378 26.881C25.0453 28.1276 22.4314 28.7418 19.5442 28.7418H10.4558C4.68147 28.7418 0 26.2846 0 21.2287C0 20.9469 0.0701367 20.6798 0.196992 20.4395C0.304336 20.2346 0.45252 20.0498 0.632461 19.8924C1.02281 19.5503 1.56316 19.3386 2.159 19.3386H27.8411C28.7113 19.3386 29.4615 19.7899 29.8031 20.4395C29.9299 20.6798 30 20.947 30 21.2287Z" fill="#FFA733"/>
<path d="M29.8029 20.4395C29.3955 22.1228 28.3746 23.434 26.9377 24.3806C25.0453 25.6271 22.4313 26.2413 19.5441 26.2413H10.4557C5.37539 26.2413 1.14164 24.3397 0.196934 20.4395C0.304277 20.2346 0.452461 20.0498 0.632402 19.8925C1.02275 19.5503 1.56311 19.3387 2.15895 19.3387H27.841C28.7113 19.3387 29.4614 19.79 29.8029 20.4395Z" fill="#FFB655"/>
<path d="M23.343 14.8976L18.2675 19.973C18.1401 20.0999 18.004 20.2121 17.8601 20.3091C16.7855 21.0366 15.3133 20.9251 14.3612 19.973L9.28579 14.8976H23.343Z" fill="#EEBF00"/>
<path d="M23.3431 14.8976L18.2676 19.973C18.1402 20.0999 18.0041 20.2121 17.8602 20.3091C17.473 20.1773 17.1095 19.9572 16.8008 19.648L12.0505 14.8976H23.3431Z" fill="#FFD422"/>
<path d="M29.4303 15.6056C29.4303 15.8715 29.3864 16.1435 29.2913 16.4088C28.9186 17.4487 27.9209 17.8524 27.1433 17.2779L26.2108 16.5894C25.56 16.1082 24.73 16.3052 24.2591 17.0529L24.2194 17.1157C23.7675 17.8341 22.9795 18.0476 22.3361 17.6268L20.2479 16.2612C19.7661 15.9465 19.1885 15.9807 18.7324 16.3521L17.0589 17.7134C16.5783 18.1043 15.966 18.1208 15.4726 17.7554L13.5636 16.3405C13.0757 15.9789 12.4708 15.9904 11.992 16.371L10.2539 17.7512C9.78728 18.1214 9.20058 18.1428 8.71818 17.8079L6.46771 16.2442C6.02492 15.9368 5.49131 15.9283 5.04242 16.2216L2.94324 17.5945C1.54537 17.7744 0.865388 16.748 0.865388 16.748C0.530584 16.1661 0.49701 15.4764 0.678181 14.8976C0.893455 14.206 1.41494 13.673 2.0931 13.673H27.9075C28.5723 13.673 29.1035 14.1981 29.3218 14.8945C29.3925 15.1177 29.4303 15.3587 29.4303 15.6056Z" fill="#6DC82A"/>
<path d="M29.3219 14.8945C29.3127 14.925 29.3024 14.9549 29.2914 14.9854C28.9188 16.0259 27.921 16.4296 27.1434 15.8551L26.2109 15.1659C25.5602 14.6854 24.7301 14.8823 24.2593 15.6295L24.2196 15.6929C23.7677 16.4113 22.9797 16.6247 22.3363 16.2039L20.2481 14.8384C19.7662 14.5231 19.1887 14.5579 18.7325 14.9293L17.059 16.2905C16.5784 16.6815 15.9661 16.6973 15.4727 16.332L13.5638 14.9171C13.0759 14.5554 12.4709 14.5676 11.9921 14.9476L10.254 16.3283C9.78737 16.6979 9.20067 16.7198 8.71827 16.385L6.4678 14.8213C6.02501 14.5133 5.49139 14.5048 5.04251 14.7987L2.94333 16.1709C1.54546 16.3515 0.865476 15.3244 0.865476 15.3244C0.786784 15.1872 0.724616 15.0439 0.678268 14.8975C0.893542 14.2059 1.41503 13.6729 2.09319 13.6729H27.9076C28.5723 13.6729 29.1035 14.198 29.3219 14.8945Z" fill="#7ED63E"/>
<path d="M28.9095 12.4178C28.9137 12.6209 28.8869 12.8166 28.8345 13.0015C28.5984 13.8236 27.8409 14.4249 26.9432 14.4249C23.4181 14.4249 14.029 14.3456 12.6129 14.3926C12.5812 14.3938 12.5495 14.395 12.5184 14.3956C10.7302 14.4633 10.3228 14.7499 10.3228 15.7032V19.1911C10.3228 19.3704 10.2502 19.5332 10.1326 19.651C10.0148 19.7687 9.8526 19.8412 9.6733 19.8412C9.31406 19.8412 9.02314 20.1321 9.02314 20.4914V22.0106C9.02314 22.1649 9.00486 22.3143 8.96947 22.4582C8.76885 23.2889 8.01926 23.9055 7.11908 23.9055H7.07092C6.04752 23.9055 5.2193 23.0742 5.22234 22.0508L5.2309 19.3009C5.23148 19.0899 5.3175 18.8984 5.45596 18.7606C5.595 18.6221 5.7859 18.5367 5.99754 18.5367C6.42082 18.5367 6.76418 18.1934 6.76418 17.7701V15.7032C6.76418 14.997 6.19213 14.4249 5.4859 14.4249H3.09387C2.01744 14.4249 1.11176 13.5754 1.08978 12.499C1.06781 11.3945 1.95703 10.4918 3.05666 10.4918H26.9042C27.9812 10.4918 28.8881 11.3414 28.9095 12.4178Z" fill="#FF3501"/>
<path d="M28.9095 12.4178C28.9138 12.6209 28.8869 12.8166 28.8345 13.0015C25.1026 12.9978 16.1856 12.924 14.8085 12.9691C12.9398 13.0307 12.5184 13.3106 12.5184 14.2804V14.3956C10.7302 14.4633 10.3228 14.7499 10.3228 15.7032V19.1911C10.3228 19.3704 10.2502 19.5332 10.1326 19.651C10.0149 19.7687 9.85263 19.8412 9.67333 19.8412C9.31409 19.8412 9.02317 20.1321 9.02317 20.4914V22.0106C9.02317 22.1649 9.00489 22.3143 8.9695 22.4582C8.08761 22.3162 7.41489 21.5495 7.41794 20.6274L7.42649 17.878C7.42708 17.6664 7.5131 17.4755 7.65155 17.3377C7.7906 17.1992 7.98149 17.1139 8.19314 17.1139C8.61642 17.1139 8.95978 16.7705 8.95978 16.3472V14.2803C8.95978 13.5741 8.38773 13.002 7.6815 13.002H5.28946C4.21304 13.002 3.30735 12.1525 3.28538 11.0761C3.2811 10.873 3.30794 10.6772 3.36103 10.4918H26.9042C27.9812 10.4918 28.8882 11.3414 28.9095 12.4178Z" fill="#FF5023"/>
<path d="M17.6584 8.49255L13.3068 12.8459C12.8708 13.2819 12.3566 13.5924 11.809 13.776C10.4587 14.2322 8.90716 13.9217 7.83255 12.8459L3.47926 8.49255H17.6584Z" fill="#EEBF00"/>
<path d="M17.6585 8.49255L13.307 12.8459C12.8709 13.2819 12.3568 13.5924 11.8091 13.776C11.262 13.5924 10.7479 13.2819 10.3124 12.8459L5.95911 8.49255H17.6585Z" fill="#FFD422"/>
<path d="M30 9.10497C30 9.13731 29.9988 9.16901 29.997 9.20071C29.9732 9.60993 29.7975 9.9789 29.5255 10.2509C29.2321 10.5443 28.8272 10.7254 28.3795 10.7254H1.62047C0.725742 10.7254 0 9.99964 0 9.10497C0 7.16311 0.900176 5.7012 2.25961 4.60157C3.36287 3.70872 4.76924 3.05429 6.24152 2.57434C10.3607 1.23325 15 1.25821 15 1.25821C15 1.25821 30 1.17712 30 9.10497Z" fill="#FFA733"/>
<path d="M30 9.10497C30 9.13731 29.9987 9.16901 29.9969 9.20071H4.91374C4.01907 9.20071 3.29327 8.47497 3.29327 7.58024C3.29327 5.63839 4.19345 4.17647 5.55288 3.0769C5.7712 2.90001 6.00112 2.73296 6.24141 2.57434C10.3606 1.23325 15 1.25821 15 1.25821C15 1.25821 30 1.17712 30 9.10497Z" fill="#FFB655"/>
<path d="M23.0624 4.09306C23.3225 4.36833 23.3102 4.80234 23.035 5.06249C22.7597 5.32259 22.3257 5.31028 22.0656 5.03507C21.8055 4.75985 21.3268 3.80612 21.602 3.54597C21.8773 3.28581 22.8023 3.81773 23.0624 4.09306Z" fill="#FFF5CC"/>
<path d="M19.4276 7.48211C19.5633 7.83567 19.3868 8.23235 19.0332 8.36811C18.6797 8.50387 18.283 8.32733 18.1472 7.97377C18.0115 7.62022 17.9317 6.55609 18.2852 6.42033C18.6388 6.28463 19.2918 7.12855 19.4276 7.48211Z" fill="#FFF5CC"/>
<path d="M15.6856 4.66167C15.6856 5.04042 15.3786 5.34739 14.9999 5.34739C14.6211 5.34739 14.3142 5.04036 14.3142 4.66167C14.3142 4.28292 14.6212 3.26099 14.9999 3.26099C15.3786 3.26093 15.6856 4.28292 15.6856 4.66167Z" fill="#FFF5CC"/>
<path d="M11.9151 7.91182C11.8204 8.2785 11.4463 8.49898 11.0797 8.4043C10.713 8.30961 10.4925 7.93555 10.5872 7.56887C10.6819 7.20219 11.2347 6.28948 11.6014 6.38416C11.9681 6.47885 12.0098 7.5452 11.9151 7.91182Z" fill="#FFF5CC"/>
<path d="M8.14263 4.92484C7.97751 5.26562 7.56742 5.40812 7.22652 5.243C6.88574 5.07788 6.74323 4.66778 6.90835 4.32689C7.07347 3.9861 7.79529 3.20013 8.13619 3.3653C8.47703 3.53048 8.30775 4.58405 8.14263 4.92484Z" fill="#FFF5CC"/>
</svg>
