<svg width="30" height="30" viewBox="0 0 30 30" fill="none" xmlns="http://www.w3.org/2000/svg">
<g clip-path="url(#clip0_0:255)">
<path d="M6.8461 8.59619L7.86533 17.2596L8.88457 18.2789L9.90381 30H20.0961L21.1153 18.2789L22.1346 17.2596L23.1538 8.59619H6.8461Z" fill="#E73835"/>
<path d="M24.6827 6.0481H5.3173V8.59615H24.6827V6.0481Z" fill="#7A0E1E"/>
<path d="M15.5096 6.04811H14.4903V2.4808C14.4898 2.29834 14.5872 2.12965 14.7451 2.03848L18.3125 0L18.8221 0.884707L15.5096 2.77641V6.04811Z" fill="#4F5052"/>
<path d="M15.5096 30L17.1745 27.5029C18.6473 25.2938 18.7156 22.4338 17.3493 20.1569C15.926 17.7841 16.0646 14.7896 17.7005 12.5585L20.6058 8.59625H15.5096L13.7968 12.2655C12.6374 14.7504 12.7878 17.6485 14.1984 19.9999C15.6503 22.4185 15.7655 25.4115 14.5042 27.9346L13.4712 30H15.5096Z" fill="#F5F5F7"/>
</g>
<defs>
<clipPath id="clip0_0:255">
<rect width="30" height="30" fill="white"/>
</clipPath>
</defs>
</svg>
