<svg width="30" height="30" viewBox="0 0 30 30" fill="none" xmlns="http://www.w3.org/2000/svg">
<g clip-path="url(#clip0_0:368)">
<path d="M3.69312 14.7569C3.01732 14.3965 2.39855 13.9381 1.85691 13.3966C1.01948 12.5851 0.423285 11.5574 0.1345 10.4276C-0.268596 8.76086 0.252555 7.00593 1.50002 5.82933C2.23867 5.0235 3.32245 4.62624 4.40691 4.76382C5.75691 4.94485 6.92588 5.9483 7.74312 6.90002L6.21726 9.11382C5.82469 8.49442 5.29791 7.97118 4.67588 7.58278C4.3603 7.40573 3.98453 7.37051 3.64155 7.48582C3.29857 7.60114 3.0204 7.85622 2.87588 8.18795C2.03795 9.77071 3.23278 11.4052 4.55691 12.2638L3.69312 14.7569Z" fill="#C03A2B"/>
<path d="M23.9949 16.6811C22.7535 17.6276 20.9742 18.1966 18.7035 18.0776C17.0535 17.9897 16.1069 17.6173 15.5638 17.0535C14.0742 15.5173 15.6155 12.6 14.0328 10.4793C12.805 8.91808 10.869 8.08641 8.89141 8.27073C8.44141 7.169 8.33796 6.29487 8.6483 5.7828C8.6483 5.77762 8.6483 5.77762 8.65348 5.77245V5.76728C8.69254 5.70766 8.7376 5.6522 8.78796 5.60176C10.1018 4.28797 15.0931 7.15349 19.9449 12C21.4111 13.4559 22.765 15.0207 23.9949 16.6811Z" fill="#BDC3C7"/>
<path d="M26.162 23.2966C24.1189 25.0552 13.9448 33.0673 6.4086 25.5311C3.02067 22.1483 2.77756 18.2276 3.69308 14.7569C3.91861 13.9056 4.20734 13.0722 4.55687 12.2638C5.03121 11.174 5.5862 10.1211 6.21722 9.11381C6.75515 8.24485 7.29308 7.48967 7.74308 6.90002C8.11549 6.41381 8.42584 6.03622 8.64825 5.78278C8.33791 6.29484 8.44136 7.16898 8.89136 8.27071C9.79136 10.4897 12.0827 13.65 15.1862 16.7535C15.3 16.8673 15.4138 16.9759 15.5276 17.0897C20.0689 21.5379 24.6569 24.2069 26.162 23.2966Z" fill="#E64C3C"/>
<path d="M23.9949 16.6811C22.765 15.0207 21.4111 13.4559 19.9449 12C15.0931 7.15349 10.1018 4.28797 8.78796 5.60176C8.7376 5.6522 8.69254 5.70766 8.65348 5.76728V5.77245C8.6483 5.77762 8.6483 5.77762 8.6483 5.7828C8.33796 6.29486 8.44141 7.169 8.89141 8.27073C9.79141 10.4897 12.0828 13.65 15.1862 16.7535C15.3 16.8673 15.4138 16.9759 15.5276 17.0897C20.069 21.538 24.6569 24.2069 26.1621 23.2966L23.9949 16.6811Z" fill="#BDC3C7"/>
<path d="M23.5972 5.41933C24.2031 4.81343 23.8756 3.50363 22.8658 2.49381C21.856 1.48398 20.5462 1.15653 19.9403 1.76243C19.3344 2.36832 19.6618 3.67812 20.6717 4.68795C21.6815 5.69777 22.9913 6.02522 23.5972 5.41933Z" fill="#A56A43"/>
<path d="M12.9879 23.3483C11.5448 24.7965 9.55859 25.2052 8.28618 24.4034C9.19652 23.4465 8.50342 22.7224 9.46032 21.7707C10.4327 20.7931 11.162 21.5224 12.1396 20.55C13.0913 19.5931 12.3982 18.8741 13.3138 17.9172C13.4595 18.0111 13.5948 18.1203 13.7172 18.2431C14.9224 19.4534 14.6017 21.7396 12.9879 23.3483Z" fill="#F29C1F"/>
<path d="M13.3138 17.9172C12.3983 18.8741 13.0914 19.5931 12.1397 20.55C11.1621 21.5224 10.4328 20.7931 9.4604 21.7707C8.5035 22.7224 9.19661 23.4466 8.28626 24.4035C8.1405 24.3096 8.00524 24.2003 7.88281 24.0776C6.67247 22.8672 6.99833 20.581 8.61212 18.9724C10.0552 17.5241 12.0414 17.1155 13.3138 17.9172Z" fill="#E57E25"/>
<path d="M15.5639 17.0535L15.5277 17.0897C15.4139 16.9759 15.3001 16.8673 15.1863 16.7535C12.0829 13.65 9.79149 10.4897 8.89149 8.27072C10.8691 8.0864 12.8051 8.91808 14.0329 10.4793C15.6156 12.6 14.0743 15.5173 15.5639 17.0535Z" fill="#A56A43"/>
<path d="M23.9949 16.6811C22.7649 15.0207 21.4111 13.4559 19.9449 12C15.0931 7.15349 10.1018 4.28797 8.78796 5.60176C8.7376 5.6522 8.69254 5.70766 8.65348 5.76728V5.77245C8.6483 5.77762 8.6483 5.77762 8.6483 5.7828C8.33796 6.29486 8.44141 7.169 8.89141 8.27073C9.79141 10.4897 12.0828 13.65 15.1862 16.7535C15.3 16.8673 15.4138 16.9759 15.5276 17.0897C20.069 21.538 24.6569 24.2069 26.1621 23.2966C26.6943 22.9112 25.919 21.5949 25.919 21.5949L23.9949 16.6811ZM16.2518 16.35L15.9155 16.0242C15.5483 15.6569 15.1966 15.2897 14.8449 14.9173C12.6466 12.5535 10.8776 10.1276 10.0242 8.29142C9.9621 8.15176 9.90003 8.01728 9.8483 7.8828C9.6163 7.41929 9.50089 6.90618 9.5121 6.38797L9.58451 6.3259C9.62899 6.31882 9.67396 6.31537 9.71899 6.31555C11.2086 6.31555 15.0414 8.56555 19.2155 12.7345C20.6037 14.1154 21.8898 15.5951 23.0638 17.1621L23.0949 17.25L24.7604 22.3345C23.3328 21.9466 20.8655 20.4724 18.0673 18.0259C17.4724 17.5138 16.8673 16.95 16.2518 16.35Z" fill="#ECF0F1"/>
<path d="M29.9844 14.731C29.9127 16.8972 29.3144 19.0134 28.2413 20.8965C27.7 21.8006 26.7404 22.3718 25.6877 22.4167H25.6696C25.3335 22.4364 24.9964 22.3998 24.6724 22.3086C24.0427 22.1049 23.436 21.8362 22.862 21.5069C22.4844 21.2948 22.081 21.0517 21.6517 20.7724C20.3936 19.9425 19.1958 19.0247 18.0672 18.0258C18.2689 18.0465 18.481 18.0672 18.7034 18.0776C20.9741 18.1965 22.7534 17.6276 23.9948 16.681C26.1082 15.1545 26.6779 12.2517 25.2982 10.0396C23.1413 6.42412 30.4086 6.3724 29.9844 14.731Z" fill="#A56A43"/>
<path d="M26.2604 19.2103C25.3681 20.2824 24.1896 21.0788 22.8621 21.5069C22.4845 21.2948 22.0811 21.0517 21.6518 20.7724C23.1387 20.487 24.4837 19.7023 25.4639 18.5483C25.6467 18.3283 25.9732 18.2982 26.1932 18.481C26.4131 18.6638 26.4432 18.9904 26.2604 19.2103Z" fill="#805333"/>
</g>
<defs>
<clipPath id="clip0_0:368">
<rect width="30" height="30" fill="white"/>
</clipPath>
</defs>
</svg>
