<svg width="30" height="30" viewBox="0 0 30 30" fill="none" xmlns="http://www.w3.org/2000/svg">
<path d="M12.1875 8.74875H10.3125V4.99875C10.3125 4.8444 10.3507 4.69245 10.4235 4.55638C10.4964 4.42031 10.6017 4.30434 10.7302 4.21875L14.9489 1.40625L15.9886 2.96625L12.1875 5.50031V8.74875Z" fill="#F9E109"/>
<path d="M15.9891 2.96715L12.1875 5.4984V8.74684H10.3125V4.99684C10.3125 4.8428 10.3506 4.69117 10.4234 4.55541C10.4962 4.41966 10.6014 4.304 10.7297 4.21871L11.2031 3.89996C11.5806 4.02465 11.9824 4.0578 12.3752 3.99667C12.768 3.93554 13.1407 3.7819 13.4625 3.5484L15.4266 2.11871L15.9891 2.96715Z" fill="#FCBC04"/>
<path d="M16.4062 28.5938H6.09375L4.21875 12.1875H18.2812L16.4062 28.5938Z" fill="#F8664F"/>
<path d="M5.15625 10.3125H17.3438C17.5924 10.3125 17.8308 10.4113 18.0067 10.5871C18.1825 10.7629 18.2812 11.0014 18.2812 11.25V12.1875H4.21875V11.25C4.21875 11.0014 4.31752 10.7629 4.49334 10.5871C4.66915 10.4113 4.90761 10.3125 5.15625 10.3125Z" fill="#84D2F4"/>
<path d="M7.5 8.4375H15C15.2486 8.4375 15.4871 8.53627 15.6629 8.71209C15.8387 8.8879 15.9375 9.12636 15.9375 9.375V10.3125H6.5625V9.375C6.5625 9.12636 6.66127 8.8879 6.83709 8.71209C7.0129 8.53627 7.25136 8.4375 7.5 8.4375Z" fill="#84D2F4"/>
<path d="M18.1219 13.5938H7.5C10.2023 16.2957 13.782 17.9418 17.5922 18.2344L16.4062 28.5938H6.09375L4.21875 12.1875H18.2812L18.1219 13.5938Z" fill="#CC5144"/>
<path d="M18.2812 11.25V12.1875H4.21875V11.25C4.21949 11.0016 4.3185 10.7636 4.49416 10.5879C4.66981 10.4123 4.90784 10.3132 5.15625 10.3125C5.15699 10.5609 5.256 10.7989 5.43166 10.9746C5.60731 11.1502 5.84534 11.2493 6.09375 11.25H18.2812Z" fill="#57B7EB"/>
<path d="M15.9375 9.375V10.3125H6.5625V9.375C6.56324 9.12659 6.66225 8.88856 6.83791 8.71291C7.01356 8.53725 7.25159 8.43824 7.5 8.4375C7.50074 8.68591 7.59975 8.92394 7.77541 9.09959C7.95106 9.27525 8.18909 9.37426 8.4375 9.375H15.9375Z" fill="#57B7EB"/>
<path d="M21.0938 10.7812L20.1562 22.5L19.6875 27.6562L22.0312 28.125L23.4375 11.25L22.0312 10.5L21.0938 10.7812Z" fill="#E59730"/>
<path d="M18.2812 13.125L19.2188 24.375H22.0312L21.0938 12.6562L19.6875 11.25L18.2812 13.125Z" fill="#FCBC04"/>
<path d="M22.0312 24.375H19.2188L18.2812 13.125L18.8344 12.389L19.6875 19.2187H20.1562L20.6672 16.2375L21.0938 15.9375L21.3797 16.2234L22.0312 24.375Z" fill="#E59730"/>
<path d="M17.3438 14.5313L15.9548 14.0541L15.4688 15.4688L17.8125 22.9688L20.0002 22.0313L17.3438 14.5313Z" fill="#F9E109"/>
<path d="M20.0016 22.0312L17.8125 22.9688L15.4688 15.4688L15.9469 14.0859L16.8047 16.6641C17.3051 18.1691 18.2257 19.4996 19.4578 20.4984L20.0016 22.0312Z" fill="#FCBC04"/>
<path d="M25.7816 11.25L23.8696 20.1562H25.7816L27.1879 13.5938L25.7816 11.25Z" fill="#F9E109"/>
<path d="M25.7104 15.6211L26.4604 12.3783L25.7816 11.25L23.8696 20.1562H25.7816L26.4205 17.1755C26.1479 17.0303 25.9306 16.7995 25.8022 16.5185C25.6739 16.2376 25.6416 15.9222 25.7104 15.6211Z" fill="#FCBC04"/>
<path d="M12.6562 14.0625L15.9375 22.9688L17.8125 22.5L14.5312 14.0625H12.6562Z" fill="#F9E109"/>
<path d="M12.6562 14.0625L15.9375 22.9688L16.875 22.7344L13.5272 14.0625H12.6562Z" fill="#FCBC04"/>
<path d="M22.9688 12.6562L21.5625 23.9062L23.4375 23.4375L25.3125 13.5938L22.9688 12.6562Z" fill="#F9E109"/>
<path d="M24.2438 19.2047L23.4375 23.4375L21.5625 23.9062L22.9688 12.6562L23.8781 13.0219L23.5031 18.2859C23.4885 18.5041 23.5566 18.7198 23.6939 18.8901C23.8311 19.0603 24.0274 19.1727 24.2438 19.2047Z" fill="#FCBC04"/>
<path d="M22.5 24.375H20.625L21.0938 15.9375L22.9688 16.4062L22.5 24.375Z" fill="#F9E109"/>
<path d="M21.9056 19.9533L22.0116 16.1672L21.0937 15.9375L20.625 24.375H22.5L22.6842 21.2466C22.4449 21.1273 22.2446 20.9423 22.1067 20.7133C21.9688 20.4842 21.899 20.2206 21.9056 19.9533Z" fill="#FCBC04"/>
<path d="M24.8438 18.2812C24.8438 20.0934 22.9552 21.5625 20.625 21.5625C18.2948 21.5625 16.4062 20.0934 16.4062 18.2812H14.0625L15.4688 28.5938H25.7812L27.1875 18.2812H24.8438Z" fill="#84D2F4"/>
<path d="M26.0391 26.7188L25.7812 28.5938H15.4688L14.0625 18.2812H16.4062C16.4144 18.6779 16.5049 19.0686 16.6719 19.4284C16.8389 19.7883 17.0789 20.1096 17.3766 20.3719C17.6509 22.1403 18.5488 23.7522 19.908 24.9162C21.2672 26.0803 22.998 26.7196 24.7875 26.7188H26.0391Z" fill="#57B7EB"/>
<path d="M20.625 26.7188C21.4017 26.7188 22.0312 26.0892 22.0312 25.3125C22.0312 24.5358 21.4017 23.9062 20.625 23.9062C19.8483 23.9062 19.2188 24.5358 19.2188 25.3125C19.2188 26.0892 19.8483 26.7188 20.625 26.7188Z" fill="#F9E109"/>
<path d="M21.7921 26.0953C21.6241 26.3453 21.3802 26.5348 21.0964 26.6358C20.8126 26.7368 20.5038 26.744 20.2156 26.6563C19.9274 26.5686 19.675 26.3908 19.4955 26.1488C19.316 25.9069 19.219 25.6137 19.2186 25.3125C19.2177 25.0255 19.3062 24.7453 19.4718 24.5109C20.1381 25.1809 20.9255 25.7185 21.7921 26.0953Z" fill="#FCBC04"/>
<path d="M14.0625 23.9062H5.625C5.12772 23.9062 4.65081 23.7087 4.29917 23.3571C3.94754 23.0054 3.75 22.5285 3.75 22.0312C3.75 21.534 3.94754 21.0571 4.29917 20.7054C4.65081 20.3538 5.12772 20.1562 5.625 20.1562H14.0625C14.5598 20.1562 15.0367 20.3538 15.3883 20.7054C15.74 21.0571 15.9375 21.534 15.9375 22.0312C15.9375 22.5285 15.74 23.0054 15.3883 23.3571C15.0367 23.7087 14.5598 23.9062 14.0625 23.9062Z" fill="#F89C8D"/>
<path d="M15 22.9688C15.2654 22.9685 15.5276 22.911 15.7687 22.8C15.6782 23.0081 15.5494 23.1973 15.389 23.3578C15.0364 23.7083 14.5596 23.9054 14.0625 23.9063H5.62495C5.2539 23.9066 4.8911 23.7968 4.58248 23.5907C4.27387 23.3847 4.03332 23.0918 3.89128 22.749C3.74925 22.4062 3.71211 22.029 3.78458 21.6651C3.85705 21.3011 4.03587 20.9669 4.29839 20.7047C4.45891 20.5443 4.64813 20.4155 4.8562 20.325C5.09731 20.214 5.35954 20.1565 5.62495 20.1562H14.0625C14.5182 20.1569 14.9581 20.3235 15.3 20.625C15.5333 20.8266 15.7109 21.0849 15.8156 21.375C15.7298 21.5298 15.6041 21.6588 15.4516 21.7486C15.2991 21.8385 15.1254 21.8859 14.9484 21.8859C14.794 21.8859 14.6417 21.8506 14.5031 21.7828C14.3665 21.7135 14.2156 21.6774 14.0625 21.6774C13.9093 21.6774 13.7584 21.7135 13.6218 21.7828L12.6281 22.2797C12.4915 22.349 12.3406 22.3852 12.1875 22.3852C12.0343 22.3852 11.8834 22.349 11.7468 22.2797L10.7531 21.7828C10.6165 21.7135 10.4656 21.6774 10.3125 21.6774C10.1593 21.6774 10.0084 21.7135 9.87183 21.7828L8.87808 22.2797C8.74155 22.349 8.59058 22.3852 8.43745 22.3852C8.28432 22.3852 8.13336 22.349 7.99683 22.2797L7.00308 21.7828C6.86654 21.7135 6.71558 21.6774 6.56245 21.6774C6.40932 21.6774 6.25836 21.7135 6.12183 21.7828L5.36714 22.1625C5.28001 22.2043 5.18894 22.2373 5.09526 22.261C5.27047 22.4821 5.4935 22.6607 5.74761 22.7833C6.00173 22.9059 6.28031 22.9693 6.56245 22.9688H15Z" fill="#F8664F"/>
<path d="M2.8125 25.7812H16.875V26.7188C16.875 27.216 16.6775 27.6929 16.3258 28.0446C15.9742 28.3962 15.4973 28.5938 15 28.5938H4.6875C4.19022 28.5938 3.71331 28.3962 3.36167 28.0446C3.01004 27.6929 2.8125 27.216 2.8125 26.7188V25.7812Z" fill="#FCBC04"/>
<path d="M11.1562 25.7812L10.7812 26.25L10.4062 25.7812H11.1562Z" fill="#E59730"/>
<path d="M11.1562 25.7812L10.7812 26.25L10.4062 25.7812H11.1562Z" fill="#E59730"/>
<path d="M15 25.7812H4.6875C4.43886 25.7812 4.2004 25.6825 4.02459 25.5067C3.84877 25.3308 3.75 25.0924 3.75 24.8438C3.75 24.5951 3.84877 24.3567 4.02459 24.1808C4.2004 24.005 4.43886 23.9062 4.6875 23.9062H15C15.2486 23.9062 15.4871 24.005 15.6629 24.1808C15.8387 24.3567 15.9375 24.5951 15.9375 24.8438C15.9375 25.0924 15.8387 25.3308 15.6629 25.5067C15.4871 25.6825 15.2486 25.7812 15 25.7812Z" fill="#CC5144"/>
<path d="M11.25 26.25L9.375 23.9062H13.125L11.25 26.25Z" fill="#F7F754"/>
<path d="M11.0892 24.4087L10.6875 23.9062H9.375L11.25 26.25L12.3117 24.923C12.0813 24.9455 11.8488 24.9103 11.6354 24.8205C11.422 24.7308 11.2343 24.5892 11.0892 24.4087Z" fill="#F9E109"/>
<path d="M3.28125 20.1562C3.28118 20.438 3.35961 20.7141 3.50774 20.9537C3.65586 21.1933 3.86783 21.3869 4.11985 21.5128L4.47797 21.6919C4.68854 21.7973 4.92077 21.8522 5.15626 21.8522C5.39174 21.8522 5.62398 21.7973 5.83454 21.6919L6.58876 21.3169C6.72617 21.2482 6.87766 21.2125 7.03126 21.2125C7.18486 21.2125 7.33636 21.2482 7.47376 21.3169L8.46377 21.8119C8.60117 21.8805 8.75267 21.9163 8.90627 21.9163C9.05987 21.9163 9.21137 21.8805 9.34877 21.8119L10.3388 21.3169C10.4762 21.2482 10.6277 21.2125 10.7813 21.2125C10.9349 21.2125 11.0864 21.2482 11.2238 21.3169L12.2138 21.8119C12.3512 21.8805 12.5027 21.9163 12.6563 21.9163C12.8099 21.9163 12.9614 21.8805 13.0988 21.8119L14.0888 21.3169C14.2262 21.2482 14.3777 21.2125 14.5313 21.2125C14.6849 21.2125 14.8364 21.2482 14.9738 21.3169C15.1248 21.3923 15.2926 21.4279 15.4613 21.4202C15.63 21.4126 15.7939 21.3619 15.9374 21.273C16.081 21.1841 16.1994 21.06 16.2815 20.9125C16.3635 20.7649 16.4065 20.5988 16.4063 20.43V20.1562H3.28125Z" fill="#C4F236"/>
<path d="M12.1875 15.4688H7.5C6.2568 15.4688 5.06451 15.9626 4.18544 16.8417C3.30636 17.7208 2.8125 18.913 2.8125 20.1562H16.875C16.875 18.913 16.3811 17.7208 15.5021 16.8417C14.623 15.9626 13.4307 15.4688 12.1875 15.4688Z" fill="#FCBC04"/>
<path d="M16.875 20.1563H2.8125C2.81293 19.1324 3.1486 18.1368 3.76821 17.3216C4.38782 16.5065 5.25729 15.9166 6.24374 15.6422C6.48735 16.5347 7.01758 17.3223 7.75277 17.8839C8.48796 18.4455 9.38735 18.7498 10.3125 18.75H16.6593C16.803 19.2049 16.8757 19.6792 16.875 20.1563Z" fill="#E59730"/>
<path d="M16.875 26.7188C16.875 27.216 16.6775 27.6929 16.3258 28.0446C15.9742 28.3962 15.4973 28.5938 15 28.5938H4.6875C4.19022 28.5938 3.71331 28.3962 3.36167 28.0446C3.01004 27.6929 2.8125 27.216 2.8125 26.7188V25.7812H3.81094C3.91421 26.1838 4.14857 26.5405 4.47704 26.7952C4.80551 27.0498 5.2094 27.1878 5.625 27.1875H15.4688C15.9762 27.1895 16.4703 27.0248 16.875 26.7188Z" fill="#E59730"/>
<path d="M16.4063 20.1562V20.4281C16.4083 20.4946 16.4004 20.5609 16.3829 20.625H4.07821C4.21377 20.8019 4.38872 20.9447 4.58914 21.0422L4.94539 21.225C5.15686 21.3291 5.38939 21.3832 5.62508 21.3832C5.86076 21.3832 6.0933 21.3291 6.30476 21.225L7.05945 20.8453C7.19598 20.776 7.34694 20.7398 7.50007 20.7398C7.6532 20.7398 7.80416 20.776 7.94069 20.8453L8.93444 21.3422C9.07097 21.4115 9.22194 21.4477 9.37506 21.4477C9.52819 21.4477 9.67916 21.4115 9.81569 21.3422L10.8094 20.8453C10.946 20.776 11.0969 20.7398 11.2501 20.7398C11.4032 20.7398 11.5542 20.776 11.6907 20.8453L12.6844 21.3422C12.821 21.4115 12.9719 21.4477 13.1251 21.4477C13.2782 21.4477 13.4291 21.4115 13.5657 21.3422L14.5594 20.8453C14.696 20.776 14.8469 20.7398 15 20.7398C15.1532 20.7398 15.3041 20.776 15.4407 20.8453C15.5759 20.913 15.7249 20.9486 15.8761 20.9495C16.0273 20.9503 16.1766 20.9162 16.3125 20.85C16.2321 21.0194 16.1053 21.1626 15.9469 21.263C15.7884 21.3634 15.6048 21.4168 15.4172 21.4172C15.2629 21.4172 15.1106 21.3819 14.9719 21.3141C14.8354 21.2447 14.6844 21.2086 14.5313 21.2086C14.3782 21.2086 14.2272 21.2447 14.0907 21.3141L13.0969 21.8109C12.9604 21.8803 12.8094 21.9164 12.6563 21.9164C12.5032 21.9164 12.3522 21.8803 12.2157 21.8109L11.2219 21.3141C11.0854 21.2447 10.9344 21.2086 10.7813 21.2086C10.6282 21.2086 10.4772 21.2447 10.3407 21.3141L9.34694 21.8109C9.21041 21.8803 9.05944 21.9164 8.90632 21.9164C8.75319 21.9164 8.60222 21.8803 8.46569 21.8109L7.47195 21.3141C7.33542 21.2447 7.18445 21.2086 7.03132 21.2086C6.8782 21.2086 6.72723 21.2447 6.5907 21.3141L5.83601 21.6937C5.62455 21.7978 5.39201 21.8519 5.15633 21.8519C4.92065 21.8519 4.68811 21.7978 4.47664 21.6937L4.1204 21.5109C3.86775 21.3863 3.65516 21.1933 3.50682 20.9538C3.35848 20.7143 3.28036 20.438 3.28134 20.1562H16.4063Z" fill="#A1D51C"/>
<path d="M10.7812 17.8125C11.0401 17.8125 11.25 17.6026 11.25 17.3438C11.25 17.0849 11.0401 16.875 10.7812 16.875C10.5224 16.875 10.3125 17.0849 10.3125 17.3438C10.3125 17.6026 10.5224 17.8125 10.7812 17.8125Z" fill="#F9E109"/>
<path d="M8.90625 17.3438C9.16513 17.3438 9.375 17.1339 9.375 16.875C9.375 16.6161 9.16513 16.4062 8.90625 16.4062C8.64737 16.4062 8.4375 16.6161 8.4375 16.875C8.4375 17.1339 8.64737 17.3438 8.90625 17.3438Z" fill="#F9E109"/>
<path d="M7.5 18.2812C7.75888 18.2812 7.96875 18.0714 7.96875 17.8125C7.96875 17.5536 7.75888 17.3438 7.5 17.3438C7.24112 17.3438 7.03125 17.5536 7.03125 17.8125C7.03125 18.0714 7.24112 18.2812 7.5 18.2812Z" fill="#F9E109"/>
<path d="M14.5312 18.2812C14.7901 18.2812 15 18.0714 15 17.8125C15 17.5536 14.7901 17.3438 14.5312 17.3438C14.2724 17.3438 14.0625 17.5536 14.0625 17.8125C14.0625 18.0714 14.2724 18.2812 14.5312 18.2812Z" fill="#F9E109"/>
<path d="M5.625 17.8125C5.88388 17.8125 6.09375 17.6026 6.09375 17.3438C6.09375 17.0849 5.88388 16.875 5.625 16.875C5.36612 16.875 5.15625 17.0849 5.15625 17.3438C5.15625 17.6026 5.36612 17.8125 5.625 17.8125Z" fill="#FCBC04"/>
<path d="M12.6562 17.3438C12.9151 17.3438 13.125 17.1339 13.125 16.875C13.125 16.6161 12.9151 16.4062 12.6562 16.4062C12.3974 16.4062 12.1875 16.6161 12.1875 16.875C12.1875 17.1339 12.3974 17.3438 12.6562 17.3438Z" fill="#F9E109"/>
<path d="M7.92643 18.0094C7.88196 18.107 7.80536 18.1865 7.70941 18.2344C7.61346 18.2824 7.50396 18.2959 7.3992 18.2729C7.29444 18.2499 7.20075 18.1916 7.13376 18.1078C7.06678 18.024 7.03055 17.9198 7.03113 17.8125C7.03189 17.7359 7.05102 17.6606 7.08691 17.5929C7.12279 17.5252 7.1744 17.4671 7.23738 17.4235H7.24207C7.44783 17.6435 7.67736 17.84 7.92643 18.0094Z" fill="#FCBC04"/>
</svg>
