<svg width="30" height="30" viewBox="0 0 30 30" fill="none" xmlns="http://www.w3.org/2000/svg">
<path d="M21.7031 30H8.29701C7.43193 30 6.68767 29.3881 6.52033 28.5394L4.09209 16.2242H25.9081L23.4798 28.5394C23.3124 29.3881 22.5682 30 21.7031 30Z" fill="#FFE07D"/>
<path d="M25.9081 16.2241H24.0972H4.09209L4.85029 20.0693C6.07379 20.081 7.17113 19.5416 7.90935 18.6835C8.14525 18.4093 8.57597 18.4103 8.81199 18.6845C9.54236 19.5329 10.6237 20.0704 11.8311 20.0704C12.8961 20.0704 13.8632 19.6521 14.5778 18.9712C14.8156 18.7446 15.1846 18.7446 15.4224 18.9712C16.137 19.6521 17.1041 20.0704 18.1691 20.0704C19.3766 20.0704 20.458 19.5329 21.1883 18.6844C21.4264 18.4078 21.8574 18.4133 22.096 18.6895C22.1013 18.6957 22.1067 18.7018 22.1121 18.708C22.8847 19.5915 23.1976 20.7867 22.9705 21.9382L21.6689 28.5394C21.5016 29.3881 20.7573 30 19.8922 30H21.7031C22.5682 30 23.3124 29.3881 23.4798 28.5394L25.1499 20.0693L25.9081 16.2241Z" fill="#FFD064"/>
<path d="M26.6272 10.5908C26.4211 10.5059 26.2765 10.3183 26.2528 10.0966C25.644 4.42037 20.8381 0 15 0C9.16196 0 4.35598 4.42037 3.74719 10.0966C3.7234 10.3182 3.57885 10.5059 3.37272 10.5908C1.89077 11.2014 0.857816 12.6797 0.907094 14.3931C0.967855 16.5053 2.70205 18.2203 4.81483 18.2589C6.04887 18.2815 7.15717 17.7424 7.90248 16.8806C8.14184 16.6038 8.57303 16.5963 8.81168 16.8736C9.54206 17.7221 10.6235 18.2596 11.8309 18.2596C12.896 18.2596 13.863 17.8414 14.5776 17.1605C14.8154 16.9339 15.1844 16.9339 15.4222 17.1605C16.1368 17.8414 17.1039 18.2596 18.1689 18.2596C19.3764 18.2596 20.4578 17.7221 21.1881 16.8736C21.4269 16.5963 21.858 16.6038 22.0973 16.8806C22.8427 17.7424 23.951 18.2815 25.185 18.2589C27.2978 18.2203 29.032 16.5054 29.0927 14.3931C29.1421 12.6797 28.1092 11.2014 26.6272 10.5908Z" fill="#E490B7"/>
<path d="M26.6273 10.5908C26.4212 10.5059 26.2766 10.3183 26.2529 10.0966C25.6441 4.42037 20.8382 0 15.0001 0C14.6953 0 14.3934 0.0127734 14.0947 0.0363867C19.5175 0.465703 23.865 4.71674 24.442 10.0966C24.4658 10.3182 24.6104 10.5059 24.8165 10.5908C26.2984 11.2014 27.3314 12.6797 27.2821 14.3931C27.2296 16.2209 25.9235 17.7503 24.2038 18.1543C24.5184 18.2276 24.8468 18.2651 25.1852 18.2589C27.298 18.2203 29.0322 16.5053 29.093 14.3931C29.1422 12.6797 28.1093 11.2014 26.6273 10.5908Z" fill="#DF75A5"/>
<path d="M15.0001 27.934C14.5001 27.934 14.0947 27.5286 14.0947 27.0286V21.231C14.0947 20.731 14.5001 20.3256 15.0001 20.3256C15.5002 20.3256 15.9056 20.7309 15.9056 21.231V27.0286C15.9056 27.5287 15.5002 27.934 15.0001 27.934Z" fill="#FBF4C6"/>
<path d="M10.4718 27.9341C10.0333 27.9341 9.64806 27.615 9.57833 27.1683L8.67289 21.3707C8.59572 20.8767 8.93369 20.4136 9.42775 20.3364C9.92169 20.2592 10.3849 20.5972 10.462 21.0913L11.3675 26.8889C11.4447 27.3829 11.1067 27.846 10.6126 27.9231C10.5653 27.9306 10.5182 27.9341 10.4718 27.9341Z" fill="#FBF4C6"/>
<path d="M19.5284 27.9341C19.482 27.9341 19.4349 27.9305 19.3876 27.9231C18.8936 27.846 18.5556 27.3829 18.6328 26.8888L19.5382 21.0913C19.6154 20.5972 20.0787 20.2592 20.5725 20.3364C21.0666 20.4136 21.4045 20.8767 21.3274 21.3707L20.4219 27.1683C20.3521 27.615 19.9668 27.9341 19.5284 27.9341Z" fill="#FBF4C6"/>
<path d="M11.8628 6.95251C12.6601 6.95251 13.3064 6.30618 13.3064 5.50888C13.3064 4.71158 12.6601 4.06525 11.8628 4.06525C11.0655 4.06525 10.4191 4.71158 10.4191 5.50888C10.4191 6.30618 11.0655 6.95251 11.8628 6.95251Z" fill="#F7F6F7"/>
<path d="M18.2544 6.95251C19.0517 6.95251 19.6981 6.30618 19.6981 5.50888C19.6981 4.71158 19.0517 4.06525 18.2544 4.06525C17.4571 4.06525 16.8108 4.71158 16.8108 5.50888C16.8108 6.30618 17.4571 6.95251 18.2544 6.95251Z" fill="#B3E59F"/>
<path d="M14.9999 14.5081C15.7972 14.5081 16.4436 13.8618 16.4436 13.0645C16.4436 12.2672 15.7972 11.6208 14.9999 11.6208C14.2026 11.6208 13.5563 12.2672 13.5563 13.0645C13.5563 13.8618 14.2026 14.5081 14.9999 14.5081Z" fill="#CBE2FF"/>
<path d="M7.55731 12.8704C8.35461 12.8704 9.00094 12.2241 9.00094 11.4268C9.00094 10.6295 8.35461 9.98315 7.55731 9.98315C6.76001 9.98315 6.11368 10.6295 6.11368 11.4268C6.11368 12.2241 6.76001 12.8704 7.55731 12.8704Z" fill="#FFE07D"/>
<path d="M22.4426 12.8704C23.2399 12.8704 23.8862 12.2241 23.8862 11.4268C23.8862 10.6295 23.2399 9.98315 22.4426 9.98315C21.6453 9.98315 20.999 10.6295 20.999 11.4268C20.999 12.2241 21.6453 12.8704 22.4426 12.8704Z" fill="#FFE07D"/>
</svg>
