<svg width="12" height="12" viewBox="0 0 12 12" fill="none" xmlns="http://www.w3.org/2000/svg">
<path d="M11.6759 5.21942C11.6757 5.21915 11.6754 5.21887 11.6751 5.2186L6.78007 0.32373C6.57142 0.11499 6.29402 0 5.99894 0C5.70387 0 5.42647 0.114899 5.21772 0.323639L0.325238 5.21603C0.32359 5.21768 0.321942 5.21942 0.320294 5.22107C-0.108173 5.65201 -0.10744 6.3512 0.3224 6.78104C0.518781 6.97751 0.77815 7.09131 1.05546 7.10321C1.06672 7.10431 1.07808 7.10486 1.08952 7.10486H1.28462V10.7072C1.28462 11.42 1.86461 12 2.57762 12H4.49272C4.68681 12 4.84428 11.8426 4.84428 11.6484V8.82422C4.84428 8.49893 5.10887 8.23434 5.43416 8.23434H6.56373C6.88902 8.23434 7.15361 8.49893 7.15361 8.82422V11.6484C7.15361 11.8426 7.31099 12 7.50517 12H9.42027C10.1333 12 10.7133 11.42 10.7133 10.7072V7.10486H10.8942C11.1892 7.10486 11.4666 6.98996 11.6754 6.78122C12.1057 6.35065 12.1059 5.65027 11.6759 5.21942Z" fill="#9F9F9F"/>
</svg>
