<svg width="16" height="16" viewBox="0 0 16 16" fill="none" xmlns="http://www.w3.org/2000/svg">
<path d="M11.7333 0.692627C9.85644 0.692627 8.61556 1.71747 8 2.39553C7.38447 1.71753 6.14356 0.692627 4.26666 0.692627C1.70566 0.692627 0 3.07416 0 5.742C0 7.73819 1.00659 11.6271 7.74784 15.244C7.90525 15.3285 8.09466 15.3285 8.25216 15.244C14.9934 11.6271 16 7.73819 16 5.742C16 3.01225 14.2438 0.692627 11.7333 0.692627ZM8 14.1671C4.76191 12.3868 1.06666 9.42031 1.06666 5.742C1.06666 3.69585 2.29538 1.75931 4.26666 1.75931C5.76219 1.75931 6.99953 2.67631 7.54706 3.53972C7.75578 3.87544 8.24597 3.8751 8.45384 3.53828C8.46484 3.5205 9.57691 1.75928 11.7333 1.75928C13.7193 1.75928 14.9333 3.71525 14.9333 5.74197C14.9333 9.42038 11.2382 12.3867 8 14.1671Z" fill="#888888"/>
</svg>
