<svg width="20" height="20" viewBox="0 0 20 20" fill="none" xmlns="http://www.w3.org/2000/svg">
<path d="M19.1667 10.816H0.833333C0.373332 10.816 0 10.4427 0 9.98269C0 9.52268 0.373332 9.14935 0.833333 9.14935H19.1667C19.6267 9.14935 20 9.52268 20 9.98269C20 10.4427 19.6267 10.816 19.1667 10.816Z" fill="#B5B5B5"/>
<path d="M19.1667 4.4271H0.833333C0.373332 4.4271 0 4.05377 0 3.59377C0 3.13377 0.373332 2.76044 0.833333 2.76044H19.1667C19.6267 2.76044 20 3.13377 20 3.59377C20 4.05377 19.6267 4.4271 19.1667 4.4271Z" fill="#B5B5B5"/>
<path d="M19.1667 17.2048H0.833333C0.373332 17.2048 0 16.8315 0 16.3715C0 15.9115 0.373332 15.5381 0.833333 15.5381H19.1667C19.6267 15.5381 20 15.9115 20 16.3715C20 16.8315 19.6267 17.2048 19.1667 17.2048Z" fill="#B5B5B5"/>
</svg>
