<svg width="16" height="15" viewBox="0 0 16 15" fill="none" xmlns="http://www.w3.org/2000/svg">
<path d="M15.3741 1.34074H5.84165C5.57958 0.562364 4.84335 0 3.97773 0C3.11211 0 2.37588 0.562364 2.11381 1.34074H0.625869C0.280222 1.34074 0 1.62096 0 1.9666C0 2.31225 0.280222 2.59247 0.625869 2.59247H2.11385C2.37592 3.37085 3.11215 3.93321 3.97777 3.93321C4.84339 3.93321 5.57962 3.37085 5.84169 2.59247H15.3741C15.7198 2.59247 16 2.31225 16 1.9666C16 1.62096 15.7198 1.34074 15.3741 1.34074ZM3.97773 2.68147C3.58356 2.68147 3.26286 2.36078 3.26286 1.9666C3.26286 1.57243 3.58356 1.25174 3.97773 1.25174C4.3719 1.25174 4.6926 1.57243 4.6926 1.9666C4.6926 2.36078 4.3719 2.68147 3.97773 2.68147Z" fill="#000743"/>
<path d="M15.3741 6.70374H13.8861C13.624 5.92537 12.8878 5.36301 12.0222 5.36301C11.1566 5.36301 10.4204 5.92537 10.1583 6.70374H0.625869C0.280222 6.70374 0 6.98396 0 7.3296C0 7.67525 0.280222 7.95547 0.625869 7.95547H10.1583C10.4204 8.73383 11.1567 9.2962 12.0222 9.2962C12.8878 9.2962 13.6241 8.73383 13.8861 7.95547H15.3741C15.7198 7.95547 16 7.67525 16 7.3296C16 6.98396 15.7198 6.70374 15.3741 6.70374ZM12.0222 8.04446C11.6281 8.04446 11.3074 7.72377 11.3074 7.3296C11.3074 6.93543 11.6281 6.61474 12.0222 6.61474C12.4164 6.61474 12.7371 6.93543 12.7371 7.3296C12.7371 7.72377 12.4164 8.04446 12.0222 8.04446Z" fill="#000743"/>
<path d="M15.3741 12.0667H8.52316C8.26109 11.2883 7.52486 10.726 6.65924 10.726C5.79363 10.726 5.05739 11.2883 4.79532 12.0667H0.625869C0.280222 12.0667 0 12.3469 0 12.6926C0 13.0382 0.280222 13.3185 0.625869 13.3185H4.79532C5.05739 14.0968 5.79363 14.6592 6.65924 14.6592C7.52486 14.6592 8.26109 14.0968 8.52316 13.3185H15.3741C15.7198 13.3185 16 13.0382 16 12.6926C16 12.3469 15.7198 12.0667 15.3741 12.0667ZM6.65924 13.4075C6.26507 13.4075 5.94438 13.0868 5.94438 12.6926C5.94438 12.2985 6.26507 11.9778 6.65924 11.9778C7.05342 11.9778 7.37411 12.2984 7.37411 12.6926C7.37411 13.0868 7.05342 13.4075 6.65924 13.4075Z" fill="#000743"/>
</svg>
