<svg width="16" height="16" viewBox="0 0 16 16" fill="none" xmlns="http://www.w3.org/2000/svg">
<path d="M7.32324 16C8.53064 16 9.54065 15.1393 9.77258 14H4.8739C5.10596 15.1393 6.11597 16 7.32324 16Z" fill="black"/>
<path d="M11.9978 7.99939C11.9951 7.99939 11.9924 8 11.9898 8C9.41713 8 7.32314 5.90662 7.32314 3.33337C7.32314 2.62598 7.48586 1.95728 7.76918 1.35596C7.62246 1.34204 7.47377 1.33337 7.32314 1.33337C4.74587 1.33337 2.65651 3.42261 2.65651 6V7.85864C2.65651 9.17798 2.07851 10.4233 1.06447 11.2806C0.726459 11.5693 0.576434 12.0293 0.697772 12.478C0.83913 13 1.35512 13.3334 1.8965 13.3334H12.7465C13.3145 13.3334 13.8499 12.9653 13.9651 12.4087C14.0545 11.978 13.9011 11.548 13.5672 11.2673C12.5978 10.4547 12.0371 9.26062 11.9978 7.99939Z" fill="black"/>
<path d="M15.3232 3.33337C15.3232 5.17432 13.8309 6.66663 11.9899 6.66663C10.1489 6.66663 8.65662 5.17432 8.65662 3.33337C8.65662 1.49243 10.1489 0 11.9899 0C13.8309 0 15.3232 1.49243 15.3232 3.33337Z" fill="#F93E3E"/>
</svg>
