<svg width="22" height="16" viewBox="0 0 22 16" fill="none" xmlns="http://www.w3.org/2000/svg">
<path d="M21.1928 4.0963C21.1434 4.0963 21.0693 4.0716 20.9952 4.0716H5.43404L5.18704 2.41669C5.03884 1.32988 4.10023 0.514771 2.98872 0.514771H0.988007C0.444603 0.514771 0 0.959374 0 1.50278C0 2.04618 0.444603 2.49079 0.988007 2.49079H2.98872C3.11222 2.49079 3.21102 2.58959 3.23572 2.71309L4.76714 13.1366C4.96474 14.4457 6.10095 15.4337 7.43476 15.4337H17.71C18.9944 15.4337 20.1059 14.5198 20.3777 13.2601L21.9832 5.23251C22.082 4.71381 21.7362 4.1951 21.1928 4.0963Z" fill="white"/>
</svg>
